<svg width="12.84" height="12.84" viewBox="0 0 14 14" fill="none" xmlns="http://www.w3.org/2000/svg">
<rect x="0.449219" y="0.417969" width="12.8426" height="12.8426" rx="6.42132" fill="#FF2D55"/>
<path d="M6.68339 5.43364L7.35179 7.78716L8.41255 6.02608H7.34966V5.43348H8.58903L6.13944 3.73272C6.04198 3.66514 5.93007 3.62742 5.81513 3.6234C5.7002 3.61939 5.58637 3.64923 5.48526 3.70988C5.38498 3.76959 5.30112 3.85817 5.24253 3.96626C5.18393 4.07436 5.15277 4.19797 5.15234 4.32405V8.05629L5.8981 5.43207L6.68339 5.43364Z" fill="white"/>
<path d="M9.67086 6.18214L9.21579 5.86719L8.04297 7.81094H9.03134L9.67129 7.36701C9.76234 7.30457 9.83749 7.21742 9.8896 7.11381C9.94171 7.0102 9.96906 6.89357 9.96906 6.77497C9.96906 6.65638 9.94171 6.53974 9.8896 6.43613C9.83749 6.33252 9.76234 6.24537 9.67129 6.18293L9.67086 6.18214Z" fill="white"/>
<path d="M6.26842 6.04688L5.71863 8.41079H5.15234V9.22479C5.15274 9.35088 5.18388 9.4745 5.24248 9.5826C5.30108 9.69071 5.38496 9.77928 5.48526 9.83896C5.58637 9.89958 5.70019 9.92942 5.81511 9.92544C5.93004 9.92146 6.04195 9.88379 6.13943 9.81628L8.16524 8.41016H6.84054L6.26842 6.04688ZM6.29032 8.41079C6.23307 8.40989 6.17734 8.39027 6.13014 8.35439C6.08293 8.31852 6.04635 8.268 6.025 8.20918C6.00365 8.15036 5.99847 8.08586 6.01013 8.02379C6.02178 7.96171 6.04975 7.90484 6.0905 7.86032C6.13126 7.8158 6.183 7.78561 6.2392 7.77355C6.29541 7.76149 6.35358 7.76809 6.40641 7.79254C6.45923 7.81698 6.50436 7.85817 6.5361 7.91093C6.56785 7.96369 6.58481 8.02566 6.58484 8.08906C6.58458 8.1316 6.57675 8.17366 6.56181 8.21285C6.54687 8.25204 6.5251 8.28759 6.49776 8.31747C6.47041 8.34734 6.43801 8.37096 6.40242 8.38697C6.36683 8.40299 6.32874 8.41108 6.29032 8.41079Z" fill="white"/>
</svg>
